<?xml version="1.0" encoding="UTF-8"?>
<svg id="Calque_1" data-name="Calque 1" xmlns="http://www.w3.org/2000/svg" viewBox="0 0 108.24 144.24">
  <defs>
    <style>
      .cls-1, .cls-2 {
        fill: #fff;
      }

      .cls-3 {
        fill: #005aa1;
      }

      .cls-4 {
        fill: #e5312b;
      }

      .cls-5 {
        fill: #e2001a;
      }

      .cls-2 {
        stroke: #1a171b;
        stroke-miterlimit: 10;
        stroke-width: .28px;
      }
    </style>
  </defs>
  <path class="cls-2" d="m108.1.14H.14v90.16c.29,3.07.85,6.11,1.69,9.07.92,3.27,2.18,6.48,3.79,9.51,1.86,3.49,4.11,6.72,6.65,9.71,2.93,3.44,6.26,6.47,9.88,9.1,4.56,3.32,9.34,6.35,14.35,8.98,5.37,2.82,10.98,5.21,16.73,7.12l.89.3.89-.3c5.75-1.91,11.35-4.3,16.73-7.12,5-2.63,9.79-5.66,14.35-8.98,3.62-2.63,6.95-5.67,9.88-9.1,2.54-2.98,4.79-6.21,6.65-9.71,1.61-3.03,2.87-6.23,3.79-9.51.84-2.96,1.4-6,1.69-9.07V.14Z"/>
  <path class="cls-3" d="m105.28,41.97H2.96v48.1c.26,2.9.8,5.76,1.59,8.56.87,3.1,2.07,6.1,3.56,8.95,1.78,3.28,3.89,6.36,6.3,9.19,2.78,3.26,5.93,6.17,9.4,8.67,4.43,3.26,9.12,6.2,13.99,8.76,5.24,2.75,10.69,5.07,16.3,6.95,5.61-1.87,11.07-4.19,16.3-6.95,4.88-2.56,9.56-5.49,14-8.76,3.47-2.5,6.62-5.41,9.4-8.67,2.42-2.83,4.53-5.91,6.3-9.19,1.49-2.85,2.69-5.85,3.57-8.95.79-2.79,1.33-5.66,1.59-8.56v-48.1Z"/>
  <rect class="cls-4" x="2.97" y="2.97" width="102.31" height="35.99"/>
  <path class="cls-1" d="m92.86,32.97l-3.58-15.73-2.48-2.09c-11.28-.13-22.57-.05-33.86.25-12.1.32-24.19.88-36.27,1.68l-1.23,1.36-1.94,12.76-5.07-.08.02-12.63-1.26-1.32v-.51c15.92-1.28,31.88-2.12,47.86-2.53,15.4-.4,30.82-.4,46.22,0l.04.76-1.91,1.81.05,16.49-6.6-.22Z"/>
  <path class="cls-1" d="m98.53,7.64l-.02,2.62c.91,0,1.82.02,2.73.03l-.02,2.02c-15.32-.29-30.65-.19-45.96.27-16.06.49-32.1,1.39-48.12,2.71l-.02-1.85c.8-.07,1.61-.13,2.4-.19l.03-2.29c-.82.07-1.62.13-2.44.19l-.04-.73c15.86-1.42,31.77-2.45,47.68-3.11,15.46-.64,30.94-.91,46.42-.82l-.03,1.16c-.87-.01-1.74-.01-2.6-.01Z"/>
  <polygon class="cls-1" points="28.98 32.01 18.1 35.37 6.95 35.37 46.26 25.46 44.22 16.44 46.23 16.45 49.35 29.92 51.35 29.91 54.72 16.17 56.82 16.15 52.85 32.35 47.89 32.11 47.45 30.15 36.34 35.37 21.87 35.37 31.73 32.08 28.98 32.01"/>
  <polygon class="cls-1" points="71.93 31.95 70.47 31.95 70.33 35.35 52.52 35.35 71.02 19.46 70.95 20.89 71.43 20.89 71.36 19.49 89.81 35.35 72.08 35.35 71.93 31.95"/>
  <path class="cls-1" d="m55.34,130.32h0c.04.72.43,1.37,1.04,1.74.48.29,1.05.38,1.59.26-.1.56-.5,1.02-1.03,1.2-.49.16-1.02.08-1.43-.22.03.61-.1,1.21-.37,1.75-.24.47-.58.88-1,1.19-.4-.33-.72-.74-.96-1.2-.27-.53-.41-1.13-.41-1.72-.41.29-.93.37-1.41.21-.55-.18-.95-.65-1.05-1.21.55.13,1.13.04,1.61-.25.61-.37.99-1.02,1.02-1.74l-4.37.02v-2.03s2.64.07,2.64.07c.01-.38-.03-.77-.13-1.14-.09-.34-.22-.67-.39-.98-.25-.45-.64-.8-1.1-1.01-.5-.23-1.06-.27-1.59-.13-.54.19-1,.56-1.28,1.05-.29.5-.39,1.1-.27,1.67-1-.34-1.8-1.09-2.2-2.07-.33-.81-.36-1.71-.08-2.55.33-1.01,1.07-1.84,2.03-2.28.8-.37,1.7-.44,2.54-.22.76.25,1.44.69,1.98,1.27.5.53.87,1.17,1.08,1.87.24.71.41,1.43.52,2.16.11.77.16,1.55.12,2.33l1.02-.02c.02-.62.02-1.25-.03-1.87-.05-.67-.13-1.35-.26-2.01-.17-.71-.39-1.42-.66-2.1-.28-.72-.62-1.41-1.01-2.07-.38-.7-.61-1.48-.67-2.28-.06-.73.02-1.46.24-2.15.14-.45.33-.89.57-1.3.24-.41.53-.71.85-1.12.31-.43.66-.76.98-1.14.25-.3.5-.56.73-.88.27.31.54.62.81.94.29.34.58.69.87,1.04.31.36.59.75.83,1.17.24.41.43.85.59,1.3.21.7.28,1.44.22,2.17-.07.79-.29,1.56-.67,2.26-.38.67-.71,1.36-.99,2.07-.27.68-.5,1.38-.68,2.09-.12.67-.21,1.34-.26,2.01-.04.63-.05,1.26-.02,1.89l.98.02c-.04-.78,0-1.57.13-2.34.12-.73.3-1.45.55-2.15.21-.7.58-1.34,1.09-1.88.54-.57,1.22-1,1.98-1.24.85-.21,1.75-.13,2.55.23.97.44,1.71,1.26,2.05,2.27.26.85.2,1.77-.15,2.58-.41.96-1.21,1.7-2.19,2.05.13-.57.04-1.17-.25-1.69-.29-.5-.75-.89-1.3-1.07-.52-.13-1.06-.09-1.56.12-.49.21-.89.57-1.15,1.04-.16.3-.29.62-.37.95-.09.37-.14.75-.13,1.13l2.62-.02-.02,2-4.37-.03Z"/>
  <polygon class="cls-1" points="64.55 21.43 69.63 19.67 70.17 19.67 58.05 25.39 57.01 29.39 53.69 31.86 57.82 16.1 58.69 16.09 55.41 28.68 56.43 28.05 59.61 16 60.47 16 58.8 22.23 69.15 19.69 69.23 19.66 69.39 19.67 63.79 21.39 64.55 21.43"/>
  <polygon class="cls-1" points="14.3 31.24 16.26 19.02 17.39 17.63 30.72 17.02 29.52 18.16 27.76 28.63 14.3 31.24"/>
  <path class="cls-5" d="m80.76,10.2l.04-2.51c-5.04.07-10.07.17-15.11.31l.04,2.42c5.01-.11,10.02-.19,15.03-.22Z"/>
  <path class="cls-5" d="m81.89,7.71l-.02,2.51c5.12-.03,10.24-.02,15.36.02l-.02-2.61c-5.1,0-10.21.02-15.32.07Z"/>
  <path class="cls-5" d="m64.56,10.44v-2.42c-3.26.09-6.51.19-9.78.31-1.51.05-3.02.11-4.53.17l.03,2.36c1.58-.06,3.16-.12,4.74-.17,3.18-.1,6.36-.19,9.54-.26Z"/>
  <path class="cls-5" d="m35.76,9.23l-.04,2.33c4.48-.23,8.95-.44,13.43-.61l-.06-2.35c-4.44.18-8.89.4-13.33.64Z"/>
  <path class="cls-5" d="m34.63,11.58l-.06-2.31c-4.07.23-8.16.47-12.24.74l.06,2.3c4.08-.27,8.16-.51,12.24-.73Z"/>
  <path class="cls-5" d="m21.4,12.37l.02-2.3c-3.63.24-7.26.5-10.88.78v2.3c3.62-.28,7.23-.55,10.85-.79Z"/>
  <polygon class="cls-1" points="86.88 29.37 84.15 17.87 82.06 15.98 86.52 15.97 88.57 17.75 91.81 32.68 86.88 29.37"/>
  <polygon class="cls-4" points="40.41 29.17 38.39 29.09 32.86 30.79 35.29 30.88 40.41 29.17"/>
  <polygon class="cls-5" points="42.54 28.48 46.7 27.1 45.36 26.96 40.64 28.41 42.54 28.48"/>
  <polygon class="cls-1" points="50.16 29.23 47.07 16.42 48.4 16.37 50.99 28.59 50.84 29.21 50.16 29.23"/>
  <polygon class="cls-1" points="51.46 27.07 49.19 16.33 50.11 16.31 52.06 24.55 51.46 27.07"/>
  <polygon class="cls-5" points="60.87 22.32 58.61 23.01 59.62 23.17 61.87 22.39 60.87 22.32"/>
  <polygon class="cls-5" points="63.92 21.62 63.05 21.6 61.67 22.02 62.64 22.07 63.92 21.62"/>
  <polygon class="cls-4" points="70.53 30.67 71.87 30.67 71.77 28.57 70.63 28.57 70.53 30.67"/>
  <polygon class="cls-4" points="70.68 27.29 71.72 27.29 71.65 25.73 70.75 25.73 70.68 27.29"/>
  <polygon class="cls-4" points="70.77 25.21 71.62 25.21 71.57 24.06 70.81 24.06 70.77 25.21"/>
  <polygon class="cls-4" points="70.84 23.54 71.55 23.54 71.51 22.61 70.88 22.61 70.84 23.54"/>
  <polygon class="cls-4" points="70.9 22.09 71.48 22.09 71.45 21.41 70.93 21.41 70.9 22.09"/>
</svg>