<?xml version="1.0" encoding="UTF-8"?>
<svg id="Plan_1" data-name="Plan 1" xmlns="http://www.w3.org/2000/svg" viewBox="0 0 107.78 143.78">
  <defs>
    <style>
      .cls-1, .cls-2, .cls-3 {
        fill-rule: evenodd;
      }

      .cls-1, .cls-3 {
        fill: #fff;
      }

      .cls-2, .cls-4 {
        fill: #086;
      }

      .cls-3 {
        stroke: #1d1d1b;
        stroke-miterlimit: 10;
        stroke-width: .5px;
      }
    </style>
  </defs>
  <path class="cls-3" d="m.25.25h107.28v117.58c0,3.82-1.66,7.34-4.32,9.79-2.52,2.52-5.98,3.89-9.58,3.89h-26.78c-2.59,0-4.97.94-6.62,2.66-1.73,1.73-2.59,4.03-2.59,6.62v2.74h-7.49v-2.74c0-2.59-.86-4.9-2.59-6.62-1.66-1.73-4.03-2.66-6.62-2.66H14.15c-3.6,0-7.06-1.37-9.58-3.89-2.66-2.45-4.32-5.98-4.32-9.79V.25Z"/>
  <path class="cls-2" d="m104.87,41.72H2.91v76.18c.07,2.95,1.37,5.76,3.46,7.85,2.09,1.94,4.9,3.1,7.78,3.1h26.78c3.24-.07,6.34,1.15,8.57,3.46,2.23,2.23,3.46,5.33,3.38,8.57h2.02c-.07-3.24,1.15-6.34,3.38-8.57,2.23-2.3,5.33-3.53,8.57-3.46h26.78c2.88,0,5.69-1.15,7.78-3.1,2.09-2.09,3.38-4.9,3.46-7.85V41.72Z"/>
  <rect class="cls-4" x="2.91" y="2.91" width="101.95" height="35.78"/>
  <path class="cls-1" d="m55.04,27.11h-.07c.07.65.43,1.3,1.01,1.66.5.29,1.01.36,1.58.22-.14.58-.5,1.01-1.01,1.15-.5.22-1.01.07-1.37-.22,0,.65-.14,1.22-.36,1.73-.22.43-.58.86-.94,1.15-.36-.36-.65-.72-.94-1.15-.22-.5-.36-1.08-.36-1.66-.43.29-.94.36-1.37.14-.5-.14-.94-.58-1.01-1.15.5.14,1.08.07,1.58-.22.58-.36.94-1.01.94-1.66h-4.18v-1.94h2.52c0-.36,0-.72-.14-1.08-.07-.29-.22-.65-.36-.94-.22-.43-.65-.79-1.08-.94-.5-.29-1.01-.29-1.51-.14s-.94.5-1.22,1.01-.36,1.08-.29,1.58c-.94-.29-1.73-1.01-2.09-1.94-.36-.79-.36-1.66-.07-2.52.29-.94,1.01-1.73,1.94-2.16.72-.36,1.66-.43,2.45-.22.72.22,1.37.65,1.87,1.22.5.5.86,1.15,1.08,1.8s.36,1.37.5,2.09c.07.72.14,1.51.07,2.23h1.01v-1.8c-.07-.65-.14-1.3-.29-1.94-.14-.72-.36-1.37-.58-2.02-.29-.72-.65-1.37-1.01-2.02-.36-.72-.58-1.44-.65-2.23-.07-.72,0-1.37.22-2.09.14-.43.36-.86.58-1.22.22-.43.5-.72.79-1.08.29-.43.65-.79.94-1.15.29-.29.5-.5.65-.79.29.29.5.58.79.86.29.36.58.72.86,1.01.29.36.58.72.79,1.15.22.36.43.79.58,1.22.14.72.22,1.44.22,2.09-.07.79-.29,1.51-.65,2.23-.36.65-.72,1.3-1.01,2.02-.22.65-.43,1.3-.65,2.02-.14.58-.22,1.22-.22,1.94-.07.58-.07,1.15-.07,1.8h.94c0-.72.07-1.51.14-2.23.14-.72.29-1.44.58-2.09.14-.72.5-1.3,1.01-1.8.5-.58,1.22-1.01,1.94-1.22.79-.22,1.66-.14,2.45.22.94.43,1.66,1.22,1.94,2.23.29.79.22,1.66-.14,2.45-.36.94-1.15,1.66-2.09,2.02.14-.58.07-1.15-.22-1.66s-.72-.86-1.3-1.01c-.5-.14-1.01-.07-1.51.07-.43.22-.86.58-1.08,1.01-.14.29-.29.65-.36.94-.07.36-.14.72-.14,1.08h2.52v1.94h-4.18Z"/>
  <path class="cls-1" d="m85.64,27.11h-.07c.07.65.43,1.3,1.01,1.66.5.29,1.01.36,1.58.22-.14.58-.5,1.01-1.01,1.15-.5.22-1.01.07-1.37-.22,0,.65-.14,1.22-.36,1.73-.22.43-.58.86-1.01,1.15-.36-.36-.65-.72-.94-1.15-.22-.5-.36-1.08-.36-1.66-.43.29-.94.36-1.37.14-.5-.14-.94-.58-1.01-1.15.5.14,1.08.07,1.58-.22.58-.36.94-1.01.94-1.66h-4.18v-1.94h2.52c0-.36,0-.72-.14-1.08-.07-.29-.22-.65-.36-.94-.22-.43-.65-.79-1.08-.94-.43-.29-1.01-.29-1.51-.14s-.94.5-1.22,1.01-.36,1.08-.29,1.58c-.94-.29-1.73-1.01-2.09-1.94-.36-.79-.36-1.66-.07-2.52.29-.94,1.01-1.73,1.94-2.16.72-.36,1.66-.43,2.45-.22.72.22,1.37.65,1.87,1.22.5.5.86,1.15,1.08,1.8s.36,1.37.5,2.09c.07.72.14,1.51.07,2.23h1.01v-1.8c-.07-.65-.14-1.3-.29-1.94-.14-.72-.36-1.37-.58-2.02-.29-.72-.65-1.37-1.01-2.02-.36-.72-.58-1.44-.65-2.23-.07-.72,0-1.37.22-2.09.14-.43.36-.86.58-1.22.22-.43.5-.72.79-1.08.29-.43.65-.79.94-1.15.29-.29.5-.5.72-.79.29.29.5.58.79.86.29.36.58.72.86,1.01.29.36.58.72.79,1.15.22.36.43.79.58,1.22.14.72.22,1.44.22,2.09-.07.79-.29,1.51-.65,2.23-.36.65-.72,1.3-1.01,2.02-.22.65-.43,1.3-.65,2.02-.14.58-.22,1.22-.22,1.94-.07.58-.07,1.15-.07,1.8h.94c0-.72.07-1.51.14-2.23.14-.72.29-1.44.58-2.09.14-.72.5-1.3,1.01-1.8.5-.58,1.22-1.01,1.94-1.22.79-.22,1.66-.14,2.45.22.94.43,1.66,1.22,1.94,2.23.29.79.22,1.66-.14,2.45-.36.94-1.15,1.66-2.09,2.02.14-.58.07-1.15-.22-1.66s-.72-.86-1.3-1.01c-.5-.14-1.01-.07-1.51.07-.43.22-.86.58-1.08,1.01-.14.29-.29.65-.36.94-.07.36-.14.72-.14,1.08h2.52v1.94h-4.18Z"/>
  <path class="cls-1" d="m24.51,27.11h0c.07.65.43,1.3,1.01,1.66.5.29,1.01.36,1.58.22-.14.58-.5,1.01-1.01,1.15-.5.22-1.01.07-1.37-.22,0,.65-.14,1.22-.36,1.73-.29.43-.58.86-1.01,1.15-.36-.36-.65-.72-.94-1.15-.22-.5-.36-1.08-.36-1.66-.43.29-.94.36-1.37.14-.5-.14-.94-.58-1.01-1.15.5.14,1.08.07,1.58-.22.58-.36.94-1.01.94-1.66h-4.18v-1.94h2.52c0-.36,0-.72-.14-1.08-.07-.29-.22-.65-.36-.94-.22-.43-.65-.79-1.08-.94-.5-.29-1.01-.29-1.51-.14s-.94.5-1.22,1.01-.36,1.08-.29,1.58c-.94-.29-1.73-1.01-2.09-1.94-.36-.79-.36-1.66-.07-2.52.29-.94,1.01-1.73,1.94-2.16.72-.36,1.66-.43,2.45-.22.72.22,1.37.65,1.87,1.22.5.5.86,1.15,1.08,1.8s.36,1.37.5,2.09c.07.72.14,1.51.07,2.23h1.01v-1.8c-.07-.65-.14-1.3-.29-1.94-.14-.72-.36-1.37-.58-2.02-.29-.72-.65-1.37-1.01-2.02-.36-.72-.58-1.44-.65-2.23-.07-.72,0-1.37.22-2.09.14-.43.36-.86.58-1.22.22-.43.5-.72.79-1.08.29-.43.65-.79.94-1.15.29-.29.5-.5.72-.79.29.29.5.58.79.86.29.36.58.72.86,1.01.29.36.58.72.79,1.15.22.36.43.79.58,1.22.14.72.22,1.44.22,2.09-.07.79-.29,1.51-.65,2.23-.43.65-.72,1.3-1.01,2.02-.22.65-.43,1.3-.65,2.02-.14.58-.22,1.22-.22,1.94-.07.58-.07,1.15-.07,1.8h.94c0-.72.07-1.51.14-2.23.14-.72.29-1.44.58-2.09.14-.72.5-1.3,1.01-1.8.5-.58,1.22-1.01,1.94-1.22.79-.22,1.66-.14,2.45.22.94.43,1.66,1.22,1.94,2.23.29.79.22,1.66-.14,2.45-.36.94-1.15,1.66-2.09,2.02.14-.58.07-1.15-.22-1.66s-.72-.86-1.3-1.01c-.5-.14-1.01-.07-1.51.07-.43.22-.86.58-1.08,1.01-.14.29-.29.65-.36.94-.07.36-.14.72-.14,1.08h2.52v1.94h-4.25Z"/>
  <polygon class="cls-2" points="72.75 90.97 83.55 90.97 83.55 73.19 72.75 90.97"/>
</svg>