<?xml version="1.0" encoding="UTF-8"?>
<svg id="Calque_2" data-name="Calque 2" xmlns="http://www.w3.org/2000/svg" viewBox="0 0 309.01 309">
  <defs>
    <style>
      .cls-1 {
        fill: none;
      }

      .cls-1, .cls-2 {
        stroke-width: 0px;
      }

      .cls-3 {
        fill: #1d1d1b;
        stroke: #000a22;
        stroke-linecap: round;
        stroke-linejoin: round;
      }

      .cls-2 {
        fill: #fff;
      }
    </style>
  </defs>
  <g id="Calque_2-2" data-name="Calque 2">
    <circle class="cls-3" cx="154.51" cy="154.5" r="154"/>
  </g>
  <g id="Calque_4" data-name="Calque 4">
    <g>
      <polygon class="cls-2" points="196.25 181.67 154.49 139.91 112.73 181.67 124.99 193.93 146.32 172.59 146.32 217.44 162.66 217.53 162.66 172.59 183.99 193.93 196.25 181.67"/>
      <g>
        <path class="cls-1" d="M185.9,126.09l-1.54-.99c-3.05-1.92-6.92-3.59-11.48-4.94-6-1.78-11.85-2.62-15.71-3.01-.87-.09-1.75-.13-2.63-.13s-1.77.04-2.66.13c-3.58.36-9.05,1.12-14.82,2.73-5.02,1.41-9.22,3.18-12.46,5.24-.16.1-.75.48-1.47.95-.67.43-1.09,1.11-1.18,1.9l-.29,2.98c2.62-1.18,5.43-2.25,8.39-3.2,7.54-2.39,15-3.57,19.93-4.14,3.08-.35,6.31-.33,9.05,0,4.21.49,10.28,1.42,16.65,3.18v-.09l3.26,1.03c2.97.95,5.79,2.03,8.43,3.22l-.29-3.01c-.08-.74-.51-1.43-1.17-1.85Z"/>
        <path class="cls-2" d="M275.2,171.47l-115.56-126.83c-1.39-1.51-3.25-2.34-5.23-2.34s-3.84.83-5.24,2.35l-115.55,126.82-.09.1c-2.36,2.89-2.36,7.27-.02,10.18,1.31,1.62,3.13,2.57,5.13,2.69,1.99.12,3.89-.6,5.35-2.03l13.62-14.94v52.89c0,2.13.85,4.19,2.32,5.64.15.15.31.29.47.42l-1.84,1.75,6.39-.1c3.96-.06,7.19-3.53,7.2-7.75v-68.82l82.26-90.28,82.23,90.25v68.85c.03,4.27,3.19,7.67,7.2,7.73h.14c4.01,0,7.28-3.48,7.28-7.75v-52.79l13.44,14.75c1.36,1.52,3.27,2.4,5.26,2.4h2.5v-.49c.99-.39,1.9-1.01,2.66-1.83,2.81-3.01,2.85-7.79.08-10.89Z"/>
        <path class="cls-2" d="M204.52,204.01l1.13-1.25-.05-.11c3.55-4.89,4.92-12.19,4.4-17.33l-3.51-34.86c-.4-4.18-2.31-8.08-5.31-10.85l-1.08-13c-.51-4.77-3.12-8.98-7.16-11.56-.75-.48-1.35-.86-1.45-.93l-.2-.12c-4.07-2.56-9.01-4.71-14.7-6.39-7.06-2.09-13.75-3.05-18.12-3.49-2.61-.27-5.28-.27-7.92,0-4.1.41-10.38,1.29-17.06,3.15-6.28,1.77-11.64,4.05-15.96,6.81l-1.55,1c-3.99,2.59-6.58,6.78-7.09,11.56l-1.11,12.98c-2.99,2.76-4.91,6.66-5.31,10.84l-3.51,34.88c-.57,5.62,1.14,13.84,5.49,18.68,1.28,1.41,5.2,5.36,10.63,7.24l-16.82,16.82h17.91l29.38-29.38h-23.71c-2.45,0-5.95-1.6-7.66-3.49-1.58-1.74-2.47-5.27-2.17-8.56l3.51-34.92c.1-1.13.61-2.1,1.39-2.68l2.4-1.76c3.81-2.77,8.75-5.13,14.69-7.03,6.79-2.16,13.86-3.2,17.48-3.62,1.99-.24,4.01-.24,6.01,0,2.85.33,10.26,1.33,17.45,3.62,5.91,1.89,10.87,4.26,14.75,7.06.1.07.58.42,1.23.9l1.13.83c.78.57,1.28,1.55,1.39,2.7l3.51,34.87c.3,3.32-.6,6.85-2.17,8.59-1.71,1.89-5.22,3.49-7.66,3.49h-23.71l29.38,29.38h17.91l-16.82-16.82c5.44-1.88,9.35-5.83,10.63-7.25ZM178.93,127.73l-3.26-1.03v.09c-6.37-1.75-12.44-2.69-16.65-3.18-2.74-.33-5.97-.35-9.05,0-4.93.57-12.39,1.75-19.93,4.14-2.96.95-5.77,2.02-8.39,3.2l.29-2.98c.09-.79.5-1.46,1.18-1.9.73-.47,1.31-.84,1.47-.95,3.24-2.06,7.43-3.83,12.46-5.24,5.77-1.61,11.25-2.37,14.82-2.73.89-.09,1.77-.13,2.66-.13s1.76.04,2.63.13c3.86.39,9.71,1.23,15.71,3.01,4.56,1.35,8.43,3.02,11.48,4.94l1.54.99c.66.42,1.09,1.1,1.17,1.85l.29,3.01c-2.63-1.19-5.45-2.27-8.43-3.22Z"/>
      </g>
    </g>
  </g>
</svg>