<?xml version="1.0" encoding="UTF-8"?>
<svg id="Calque_2" data-name="Calque 2" xmlns="http://www.w3.org/2000/svg" viewBox="0 0 215.2 215.2">
  <defs>
    <style>
      .cls-1 {
        fill: #1d1d1b;
      }

      .cls-1, .cls-2 {
        stroke-width: 0px;
      }

      .cls-2 {
        fill: #fff;
      }
    </style>
  </defs>
  <g id="Calque_1-2" data-name="Calque 1">
    <g>
      <g id="Carré_noir" data-name="Carré noir">
        <path class="cls-1" d="M206.24,215.2H8.95c-4.93,0-8.95-4.02-8.95-8.95V8.95C0,4.02,4.02,0,8.95,0h197.29c4.97,0,8.95,4.02,8.95,8.95v197.29c0,4.93-4.02,8.95-8.95,8.95Z"/>
      </g>
      <g id="Picto_blanc" data-name="Picto blanc">
        <path class="cls-2" d="M174.55,113.75l-6.14-58.3c-1.46-13.7-13-24.07-26.76-24.07h-68.1c-13.76,0-25.31,10.41-26.76,24.07l-6.14,58.3c-.19,1.87-.28,3.76-.28,5.63v39.79c0,2.47,1.99,4.49,4.49,4.49h4.49v15.69c0,2.47,1.99,4.49,4.49,4.49h13.51c2.47,0,4.49-1.99,4.49-4.49v-15.69h71.68v15.69c0,2.47,1.99,4.49,4.49,4.49h13.51c2.47,0,4.49-1.99,4.49-4.49v-15.69h4.43c2.47,0,4.49-1.99,4.49-4.49v-39.79c-.06-1.87-.19-3.76-.38-5.63ZM53.84,137.47c-.44-5.54,4.14-10.09,9.68-9.68,4.33.35,7.88,3.86,8.22,8.22.44,5.54-4.14,10.09-9.68,9.68-4.37-.35-7.88-3.89-8.22-8.22ZM52.1,112.07l4.84-46.21c.73-6.83,6.48-12.05,13.38-12.05h74.46c6.9,0,12.65,5.19,13.38,12.02l4.9,46.25H52.1ZM143.48,137.47c-.44-5.54,4.14-10.09,9.68-9.68,4.33.35,7.88,3.86,8.22,8.22.44,5.54-4.14,10.09-9.68,9.68-4.33-.35-7.88-3.89-8.22-8.22Z"/>
      </g>
    </g>
  </g>
</svg>