<?xml version="1.0" encoding="UTF-8"?>
<svg id="Calque_2" data-name="Calque 2" xmlns="http://www.w3.org/2000/svg" viewBox="0 0 215.63 215.63">
  <defs>
    <style>
      .cls-1 {
        fill: #1d1d1b;
      }

      .cls-1, .cls-2 {
        stroke-width: 0px;
      }

      .cls-2 {
        fill: #fff;
      }
    </style>
  </defs>
  <g id="Calque_1-2" data-name="Calque 1">
    <g>
      <rect class="cls-1" width="215.63" height="215.63" rx="8.98" ry="8.98"/>
      <g>
        <polygon class="cls-2" points="162.87 128.49 107.81 73.43 52.76 128.49 68.92 144.65 97.04 116.52 97.04 175.65 118.59 175.77 118.59 116.52 146.71 144.65 162.87 128.49"/>
        <path class="cls-2" d="M171.33,155.72c5.05-5.58,7.07-15.54,6.41-22.08l-4.63-45.99c-.49-5.15-3-9.87-6.89-13l-1.53-18.41c-.57-5.28-3.46-9.96-7.93-12.82-1.04-.66-1.86-1.19-1.98-1.27l-.05-.03c-5.12-3.25-11.41-5.99-18.69-8.14-8.98-2.66-17.62-3.91-23.28-4.48-3.22-.33-6.51-.33-9.78,0-5.28.53-13.37,1.66-21.93,4.05-7.96,2.24-14.73,5.12-20.15,8.57l-2.05,1.32c-4.42,2.86-7.29,7.5-7.86,12.76l-1.58,18.45c-3.89,3.12-6.4,7.85-6.89,13l-4.63,45.99c-.66,6.54,1.37,16.5,6.41,22.08,4.09,4.52,10.94,9.34,18.21,9.78l-20.86,20.86h14.29l32.14-32.14h-23.3c-4.15,0-9.66-2.49-12.54-5.68-2.69-2.97-4.18-8.53-3.71-13.83l4.63-46.02c.23-2.43,1.39-4.57,3.17-5.88,1.56-1.15,2.97-2.18,3.18-2.33,5.34-3.87,12.18-7.15,20.31-9.74,9.31-2.96,18.81-4.34,23.65-4.9,2.88-.34,5.81-.34,8.69,0,4.84.56,14.34,1.95,23.64,4.9,8.14,2.6,14.98,5.88,20.35,9.76.13.09.78.57,1.67,1.22l1.49,1.09c1.78,1.31,2.94,3.45,3.17,5.89l4.63,46.01c.48,5.3-1.01,10.86-3.71,13.83-2.88,3.18-8.38,5.68-12.54,5.68h-23.3l32.14,32.14h14.29l-20.86-20.86c7.27-.43,14.12-5.25,18.21-9.78ZM139.04,60.55h0c-9.64-3.06-19.27-4.59-25.65-5.33-1.85-.22-3.72-.32-5.58-.32s-3.73.11-5.58.32c-6.38.74-16.01,2.27-25.66,5.33-5.86,1.87-11.22,4.11-15.93,6.65l.98-9.86c.22-2.02,1.32-3.8,3.03-4.91,1.01-.66,1.82-1.18,1.97-1.27,4.54-2.89,10.37-5.35,17.31-7.3,7.82-2.18,15.25-3.22,20.1-3.71,2.55-.25,5.12-.25,7.64,0,5.21.53,13.14,1.66,21.32,4.09,6.33,1.87,11.7,4.19,15.98,6.9l2.02,1.29c1.73,1.1,2.84,2.9,3.06,4.91l.95,9.85c-4.73-2.55-10.09-4.79-15.96-6.67Z"/>
      </g>
    </g>
  </g>
</svg>