<?xml version="1.0" encoding="UTF-8"?>
<svg xmlns="http://www.w3.org/2000/svg" viewBox="0 0 309 309">
  <defs>
    <style>
      .cls-1 {
        fill: #1d1d1b;
        stroke: #000a22;
        stroke-linecap: round;
        stroke-linejoin: round;
      }

      .cls-2 {
        fill: #fff;
        stroke-width: 0px;
      }
    </style>
  </defs>
  <g id="Calque_2" data-name="Calque 2">
    <circle class="cls-1" cx="154.5" cy="154.5" r="154"/>
  </g>
  <g id="Calque_3" data-name="Calque 3">
    <path class="cls-2" d="M269.98,182.18c-1.28,0-2.5-.56-3.39-1.56l-112.16-123.1-112.16,123.1c-1.99,1.94-5.03,1.74-6.79-.44-1.62-2.01-1.62-5.03.01-7.03l115.55-126.82c1.88-2.04,4.9-2.04,6.78,0l115.55,126.82c1.87,2.09,1.85,5.45-.06,7.5-.89.96-2.08,1.51-3.33,1.52Z"/>
    <path class="cls-2" d="M64.94,225.57c-2.64.02-4.8-2.32-4.81-5.22,0-.02,0-.04,0-.05v-71.31c.33-2.89,2.74-4.94,5.37-4.58,2.18.3,3.9,2.19,4.17,4.58v71.34c-.01,2.87-2.12,5.21-4.74,5.25Z"/>
    <path class="cls-2" d="M243.9,225.57c-2.62-.04-4.72-2.38-4.74-5.25v-71.34c0-2.92,2.15-5.28,4.81-5.28s4.81,2.36,4.81,5.28v71.34c0,2.9-2.14,5.25-4.78,5.25-.03,0-.07,0-.1,0Z"/>
  </g>
  <g id="Calque_4" data-name="Calque 4">
    <g>
      <polygon class="cls-2" points="196.26 181.67 154.5 139.91 112.74 181.67 125 193.93 146.33 172.59 146.33 217.44 162.67 217.53 162.67 172.59 184 193.93 196.26 181.67"/>
      <path class="cls-2" d="M202.67,202.32c3.83-4.23,5.36-11.79,4.86-16.75l-3.51-34.88c-.37-3.91-2.28-7.49-5.23-9.86l-1.16-13.96c-.43-4-2.62-7.55-6.01-9.72-.79-.5-1.41-.9-1.5-.96l-.04-.02c-3.88-2.46-8.65-4.54-14.18-6.17-6.81-2.02-13.36-2.97-17.66-3.4-2.44-.25-4.94-.25-7.42,0-4,.4-10.14,1.26-16.63,3.07-6.04,1.7-11.17,3.88-15.28,6.5l-1.55,1c-3.35,2.17-5.53,5.69-5.96,9.68l-1.2,13.99c-2.95,2.37-4.85,5.95-5.23,9.86l-3.51,34.88c-.5,4.96,1.04,12.51,4.86,16.75,3.1,3.43,8.3,7.08,13.81,7.42l-15.82,15.82h10.84l24.38-24.38h-17.67c-3.15,0-7.33-1.89-9.51-4.31-2.04-2.25-3.17-6.47-2.81-10.49l3.51-34.9c.17-1.84,1.05-3.47,2.4-4.46,1.18-.87,2.25-1.65,2.41-1.77,4.05-2.94,9.24-5.42,15.4-7.39,7.06-2.25,14.27-3.29,17.94-3.72,2.18-.26,4.41-.26,6.59,0,3.67.42,10.88,1.48,17.93,3.72,6.17,1.97,11.36,4.46,15.43,7.4.1.07.59.43,1.27.93l1.13.83c1.35.99,2.23,2.62,2.4,4.47l3.51,34.9c.36,4.02-.77,8.24-2.81,10.49-2.18,2.41-6.36,4.31-9.51,4.31h-17.67l24.38,24.38h10.84l-15.82-15.82c5.51-.33,10.71-3.98,13.81-7.42h0ZM178.18,130.14h0c-7.31-2.32-14.62-3.48-19.45-4.04-1.4-.17-2.82-.24-4.23-.24s-2.83.08-4.23.24c-4.84.56-12.14,1.72-19.46,4.04-4.44,1.42-8.51,3.12-12.08,5.04l.74-7.48c.17-1.53,1-2.88,2.3-3.72.77-.5,1.38-.89,1.49-.96,3.44-2.19,7.87-4.06,13.13-5.54,5.93-1.65,11.57-2.44,15.25-2.81,1.93-.19,3.88-.19,5.79,0,3.95.4,9.97,1.26,16.17,3.1,4.8,1.42,8.87,3.18,12.12,5.23l1.53.98c1.31.83,2.15,2.2,2.32,3.72l.72,7.47c-3.59-1.93-7.65-3.63-12.11-5.06v.02Z"/>
    </g>
  </g>
</svg>