<?xml version="1.0" encoding="UTF-8"?>
<svg id="Calque_1" data-name="Calque 1" xmlns="http://www.w3.org/2000/svg" viewBox="0 0 309 309">
  <defs>
    <style>
      .cls-1 {
        fill: #1d1d1b;
      }

      .cls-1, .cls-2 {
        stroke: #000a22;
        stroke-linecap: round;
        stroke-linejoin: round;
      }

      .cls-2 {
        fill: #fff;
      }
    </style>
  </defs>
  <g id="OBJECTS">
    <circle class="cls-1" cx="154.5" cy="154.5" r="154"/>
    <path class="cls-2" d="M239.09,219.84c1.82-5.22-3.29-8.37-6.32-11.35-9.79-9.61-3.35-13.64-6.21-9.05,7.6-17.3,7.96-23.95,11.18-27.49,9.45-10.39,31.62,9.3,22.96-30.87-1.94-9.02-6.96-5.18-16.13-5.43-12.96-.35-12.15-10.22-18.1-23.39-6.65-14.73,13.98-17.38,8.68-28.56-1.73-3.64-5.12-5.93-13.62-12.96-15.19-12.55-13.06,15.97-33.56,6.67-5.8-2.63-16.77-4.79-20.82-10.23-3.82-5.13.15-17.28-3.41-19.93-2.24-1.67-26.2-2.07-28.41.2-5.28,5.39,4.28,19.48-6.86,24.47-24.34,10.9-24.41,11.33-26.98,10.87-6.17-1.1-11.78-14.21-18.19-11.9-1.71.62-1.83.98-14.19,12.88-12.48,12.02,7.35,16.13,9.12,26.22.82,4.63-2.61,9.55-8.43,24.6-3.98,10.29-20.96,5.93-22.97,9.84-1.01,1.98-.24,17.12.32,21.56,1.06,8.49,8.7,5.08,15.51,6.97,10.65,2.95,8.83,11.44,13.52,18.96,3.98,6.37,5.38,3.59,15.85-7.04,4.56-4.63,6.91-3.52,3.76-13.36-16.14-50.32,37.84-102.09,90.12-67.66,39.2,25.81,31.67,73.01,9.99,93.35-32.18,30.2-55.92,12.92-61.35,14.02-1.45.3-18.24,17.8-17.92,19.92.99,6.44,19.77,1.54,23.23,15.06,2.17,8.47-5.14,15.77,13.45,16.22,5.08.12,16.46,2.98,17.37-4.51,3.63-29.68,7.95-18.26,29.31-31.93,7.02-4.49,13.6,10.99,20.12,11.4,4.8.3,17.22-12.57,18.97-17.58Z"/>
    <path class="cls-2" d="M137.69,196.35c2.58-.78,5.65.49,8.29.75,12.71,1.22,25.96-3.07,35.31-11.82,11.47-10.74,15.74-27.95,12.12-43.24-8.22,8-15.91,16.45-23.21,25.29-8.3-1.01-16.68-2.14-24.98-3.15-2.73-9.09-5.46-18.18-8.19-27.26,8.46-8.32,17.41-15.89,25.67-24.4-15.46-2.73-32.98,2.17-43.7,13.64s-13.88,29.99-5.93,43.53c3.2,5.45-10.56,15.87-13.72,19.11-6.56,6.74-13.09,13.5-19.57,20.31-4.48,4.71-10.51,9.17-5.24,15.98,3.38,4.38,6.93,8.64,10.96,12.42,1.24,1.17,2.61,2.33,4.27,2.7,3.63.8,7.35-4.2,9.57-6.39,3.52-3.46,6.93-7.03,10.34-10.6,6.65-6.98,13.24-14.04,20.4-20.52,2-1.81,4.85-5.43,7.46-6.32.05-.02.1-.04.16-.05Z"/>
  </g>
</svg>