<?xml version="1.0" encoding="UTF-8"?>
<svg id="svg87993" xmlns="http://www.w3.org/2000/svg" viewBox="0 0 629.91 799.56">
  <defs>
    <style>
      .cls-1 {
        fill: #fff;
      }

      .cls-1, .cls-2 {
        fill-rule: evenodd;
        stroke-width: 0px;
      }

      .cls-2 {
        fill: #1d1d1b;
      }
    </style>
  </defs>
  <g id="layer1">
    <path id="path75557-6" class="cls-1" d="M0,0v397.55c0,103.66,47.53,159.88,111.8,241.22,62.14,78.79,200.92,160.8,200.92,160.8,0,0,142.95-84.92,205.57-160.8,53.56-62.53,111.62-137.56,111.62-241.22V0H0Z"/>
  </g>
  <g id="layer1-2" data-name="layer1">
    <path id="path75557" class="cls-2" d="M41.21,170.85v225.24c0,90.1,41.31,138.96,97.17,209.66,54.01,68.48,174.63,139.76,174.63,139.76,0,0,124.25-73.81,178.68-139.76,46.55-54.35,97.02-119.56,97.02-209.66v-225.24H41.21ZM0,0v397.55c0,103.66,47.53,159.88,111.8,241.22,62.14,78.79,200.92,160.8,200.92,160.8,0,0,142.95-84.92,205.57-160.8,53.56-62.53,111.62-137.56,111.62-241.22V0H0Z"/>
  </g>
</svg>