<?xml version="1.0" encoding="UTF-8"?>
<svg id="svg87993" xmlns="http://www.w3.org/2000/svg" viewBox="0 0 631.01 804.58">
  <defs>
    <style>
      .cls-1 {
        fill: #1d1d1b;
      }

      .cls-1, .cls-2 {
        stroke-width: 0px;
      }

      .cls-2 {
        fill: #fff;
      }
    </style>
  </defs>
  <g id="layer1">
    <path id="path856" class="cls-2" d="M.25,0v594.31c0,17.72-.56,10.85,0,17.72h0c4.14,46.31,37.74,77.92,78.8,83.83,9.13,1.37,7.88,0,23.71,0h143.64c25.31,0,69.15,108.72,69.15,108.72,0,0,45.83-108.72,71.06-108.72h141.64c8.03.11,12.56.2,15.02.26-.48-.06-.5-.15.82-.26,43.5-3.9,82.35-34.86,86.66-83.83.6-6.86,0,0,0-17.72V0H.25Z"/>
    <path id="path76131-7-1" class="cls-1" d="M35.95,44.21h559.09v527c0,15.71.53,9.62,0,15.71-3.82,43.42-38.27,67.33-76.85,70.79-.31.03-.52.06-.68.08,5.75.12-1.93.29,0,0-2.16-.04-6.16-.08-13.38-.08h-132.69c-20.94,7.87-55.92,78.67-55.92,78.67,0,0-34.97-70.81-55.99-78.67H126.84c-14.04,0-12.92,1.17-21.02,0-36.41-5.23-66.2-29.72-69.88-70.79h0c-.56-6.08,0,0,0-15.71V44.21ZM.25,0v594.31c0,17.72-.56,10.85,0,17.72h0c4.14,46.31,37.74,77.92,78.8,83.83,9.13,1.37,7.88,0,23.71,0h143.64c25.31,0,69.15,108.72,69.15,108.72,0,0,45.83-108.72,71.06-108.72h141.64c8.03.11,12.56.2,15.02.26-.48-.06-.5-.15.82-.26,43.5-3.9,82.35-34.86,86.66-83.83.6-6.86,0,0,0-17.72V0H.25Z"/>
  </g>
</svg>